<?xml version="1.0" encoding="UTF-8" standalone="no"?>
<svg
   xmlns:dc="http://purl.org/dc/elements/1.1/"
   xmlns:cc="http://creativecommons.org/ns#"
   xmlns:rdf="http://www.w3.org/1999/02/22-rdf-syntax-ns#"
   xmlns:svg="http://www.w3.org/2000/svg"
   xmlns="http://www.w3.org/2000/svg"
   xmlns:sodipodi="http://sodipodi.sourceforge.net/DTD/sodipodi-0.dtd"
   xmlns:inkscape="http://www.inkscape.org/namespaces/inkscape"
   height="1180"
   width="1000"
   version="1.1"
   viewBox="0 0 1000 1180"
   data-name="Layer 1"
   id="Layer_1"
   sodipodi:docname="nyano cat head collar black (for pink background).svg"
   inkscape:export-filename="K:\Images\Artwork\Cryptocurrency\nyano w collar\svg\nyano cat head collar black (for pink background).png"
   inkscape:export-xdpi="96"
   inkscape:export-ydpi="96"
   inkscape:version="1.0 (4035a4fb49, 2020-05-01)">
  <sodipodi:namedview
     inkscape:document-rotation="0"
     pagecolor="#ffffff"
     bordercolor="#666666"
     borderopacity="1"
     objecttolerance="10"
     gridtolerance="10"
     guidetolerance="10"
     inkscape:pageopacity="0"
     inkscape:pageshadow="2"
     inkscape:window-width="1427"
     inkscape:window-height="959"
     id="namedview1039"
     showgrid="false"
     inkscape:zoom="0.18008475"
     inkscape:cx="-155.1716"
     inkscape:cy="194.7394"
     inkscape:window-x="0"
     inkscape:window-y="0"
     inkscape:window-maximized="0"
     inkscape:current-layer="layer3" />
  <metadata
     id="metadata39">
    <rdf:RDF>
      <cc:Work
         rdf:about="">
        <dc:format>image/svg+xml</dc:format>
        <dc:type
           rdf:resource="http://purl.org/dc/dcmitype/StillImage" />
        <dc:title></dc:title>
      </cc:Work>
    </rdf:RDF>
  </metadata>
  <defs
     id="defs4">
    <style
       id="style2">.cls-1{fill:#efe6e1;}.cls-2{fill:#4a90e2;}.cls-3{fill:#d7a29c;}.cls-4{fill:#f3c4b9;}.cls-5{fill:#eb8f78;}.cls-6{fill:#0e1032;}.cls-7{fill:#ddd5da;}.cls-8{fill:#2a4a81;}</style>
  </defs>
  <g
     id="layer1"
     transform="matrix(3.7795275,0,0,3.7795275,99.15139,-41.380519)">
    <path
       id="rect861"
       style="fill:#222222;fill-opacity:1;stroke:#0e1032;stroke-width:6;stroke-linejoin:round;stroke-miterlimit:4;stroke-dasharray:none;stroke-opacity:1;stop-color:#000000"
       d="m 31.117888,223.81225 c 0,0 12.321049,20.6375 74.669162,20.6375 62.3481,0 75.02403,-20.6375 75.02403,-20.6375 2.15645,-0.27618 3.91201,2.23 3.91201,4.99999 v 20.01133 c 0,2.77 -2.00448,7.42498 -3.91201,9.76249 0,0 -16.06395,20.6375 -74.8466,20.6375 -58.782653,0 -74.846592,-20.6375 -74.846592,-20.6375 -2.156413,-2.3545 -3.912013,-6.99249 -3.912013,-9.76249 v -20.01133 c 0,-2.76999 1.744759,-4.99999 3.912013,-4.99999 z"
       sodipodi:nodetypes="cscsscscssc" />
  </g>
  <g
     id="layer5"
     style="display:inline"
     transform="matrix(3.7795275,0,0,3.7795275,-167.73751,-126.71453)">
    <path
       id="rect984"
       style="fill:#434343;fill-opacity:1;stroke:#0e1032;stroke-width:6;stroke-linejoin:round;stroke-miterlimit:4;stroke-dasharray:none;stroke-opacity:1;stop-color:#000000"
       d="m 143.79078,270.47973 -12.56608,-3.175 c -1.67534,-0.4233 -3.11912,2.23 -3.11912,4.99999 v 20.16863 c 0,2.77 1.44378,4.57669 3.11912,4.99999 l 12.56608,3.175 c 1.67534,0.4233 3.11911,-2.22999 3.11911,-4.99999 v -20.16863 c 0,-2.76999 -1.44377,-4.57669 -3.11911,-4.99999 z" />
    <path
       d="m 130.89236,266.73474 -12.56608,-3.175 c -1.67534,-0.4233 -3.11912,2.23 -3.11912,4.99999 v 20.16863 c 0,2.77 1.44378,4.57668 3.11912,4.99999 l 12.56608,3.175 c 1.67534,0.4233 3.11911,-2.22999 3.11911,-4.99999 v -20.16863 c 0,-2.76999 -1.44377,-4.57669 -3.11911,-4.99999 z"
       style="fill:#747474;fill-opacity:1;stroke:#0e1032;stroke-width:6.00001;stroke-linejoin:round;stroke-miterlimit:4;stroke-dasharray:none;stroke-opacity:1;stop-color:#000000"
       id="rect984-8" />
  </g>
  <g
     id="layer3"
     style="display:inline"
     transform="matrix(3.7795275,0,0,3.7795275,-167.73751,-105.94632)">
    <circle
       style="fill:#209ce9;fill-opacity:1;stroke:#0e1032;stroke-width:6;stroke-linejoin:round;stroke-miterlimit:4;stroke-dasharray:none;stroke-opacity:1;stop-color:#000000"
       id="path883-9-4"
       cx="208.41788"
       cy="303.28995"
       r="25.77977" />
  </g>
  <path
     id="path6"
     d="m 148.46,734.75 c 0,0 6.73,34.56 22.58,84 a 836.83,836.83 0 0 1 34.26,-80.12 z"
     class="cls-1" />
  <path
     id="path8"
     d="m 499,941.57 -1,-0.15 c -13.56,-2.17 -25.31,-4.23 -35.92,-6.28 C 159.26,879.05 45.65,755.9 41,750.69 L 35.81,745 54.81,699.1 17,664.51 60.1,614.29 c -3.51,-61.93 33.92,-163.47 41.76,-184 -43.83,-204 53.2,-354.1 57.37,-360.42 l 5.61,-8.49 9.36,4 C 249.35,97.14 342.08,191.6 366.15,217 c 1.12,-0.42 2.39,-0.88 3.77,-1.37 3.5,-1.27 7.52,-2.62 11.82,-4 4.1,-1.3 8.19,-2.6 12.3,-3.72 l 1.29,-0.36 c 2.83,-0.78 5.6,-1.53 8.42,-2.18 8.81,-2.18 17.45,-4 26.21,-5.58 4.36,-0.82 9,-1.59 14,-2.33 4.61,-0.72 9.73,-1.38 16,-2.06 8.93,-0.93 17.75,-1.51 26.26,-1.74 2.45,-0.12 5.05,-0.19 7.69,-0.19 1.8,-0.06 3.94,-0.09 6.06,-0.09 2.12,0 4.25,0 6.35,0.09 l 2.82,0.06 c 1.61,0 3.19,0.06 4.77,0.14 6.9,0.19 13.61,0.6 20.3,1.22 7.07,0.61 14.4,1.47 21.69,2.53 4.77,0.74 9.49,1.5 14.22,2.38 4.19,0.76 8.22,1.59 12.15,2.4 l 10.82,2.22 v 0.2 l 3.27,0.79 c 2,0.48 3.94,1 5.84,1.53 l 4.21,1.13 c 4.26,1.24 8.29,2.41 12,3.64 4.85,1.5 8.69,2.79 11.84,4 1.23,0.43 2.41,0.86 3.51,1.27 24.08,-25.39 116.76,-119.83 192,-151.58 l 9.37,-4 5.6,8.49 c 4.17,6.33 101.08,156.41 57.36,360.42 7.84,20.49 45.27,122 41.74,184 l 43.17,50.21 -38,34.54 19,45.94 -5.15,5.74 c -4.65,5.16 -118.25,128.31 -421.21,184.42 -10.27,2 -22,4.05 -35.7,6.26 l -1,0.15 z"
     class="cls-2" />
  <path
     id="path10"
     d="m 930.44,695.51 19.35,46.71 c 0,0 -112,124.62 -414.38,180.62 -11.41,2.23 -23.41,4.27 -35.41,6.21 -12,-1.94 -24,-4 -35.41,-6.21 C 162.24,866.84 50.2,742.22 50.2,742.22 L 69.57,695.51 34.05,663.18 72.76,618.11 c 0,0 268.17,168.14 427.24,-19.35 159.08,187.49 427.23,19.35 427.23,19.35 L 966,663.18 Z"
     class="cls-1" />
  <path
     id="path12"
     d="m 458.08,694.4 c 0,13.8 18.77,25 41.92,25 23.15,0 41.92,-11.19 41.92,-25 0,-13.81 -18.77,-25 -41.92,-25 -23.15,0 -41.92,11.19 -41.92,25 z"
     class="cls-3" />
  <path
     id="path14"
     d="m 716,276.55 c 0,0 11.29,24.18 35.48,27.41 24.19,3.23 62.88,-33.86 62.88,-33.86 l -24.16,67.72 h 38.7 l -12.9,30.64 38.7,37.08 c 0,0 50,-169.3 -32.25,-293.46 z"
     class="cls-4" />
  <path
     id="path16"
     d="m 283.7,276.55 c 0,0 -11.28,24.18 -35.47,27.45 -24.19,3.27 -62.88,-33.86 -62.88,-33.86 l 24.18,67.72 h -38.7 l 12.9,30.64 -38.73,37.04 c 0,0 -50,-169.3 32.24,-293.46 z"
     class="cls-4" />
  <path
     id="path18"
     d="m 408.09,740.35 c 3.23,16.93 23.38,29.83 23.38,29.83 45.15,13.7 68.53,-35.47 68.53,-35.47 0,0 23.38,49.17 68.53,35.47 0,0 20.15,-12.9 23.38,-29.83 0,0 20.15,-13.71 21.77,6.45 C 615.3,766.96 556.43,829 500,764.54 443.57,829 384.71,767 386.32,746.8 c 1.61,-20.2 21.77,-6.45 21.77,-6.45 z"
     class="cls-5" />
  <path
     id="path20"
     d="m 650.73,605.88 a 60.07,60.07 0 1 0 60.06,-60.06 60.06,60.06 0 0 0 -60.06,60.06 z"
     class="cls-6" />
  <circle
     id="circle22"
     r="22.98"
     cy="576.04999"
     cx="716.03003"
     class="cls-7" />
  <path
     id="path24"
     d="m 234.7,599 a 60.07,60.07 0 1 0 60.06,-60 60.06,60.06 0 0 0 -60.06,60 z"
     class="cls-6" />
  <circle
     id="circle26"
     r="22.98"
     cy="569.20001"
     cx="300"
     class="cls-7" />
  <path
     id="path28"
     d="m 559.17,205.47 v 105.09 a 39.11,39.11 0 1 0 78.21,0 l -0.38,-84 a 331.59,331.59 0 0 0 -38.73,-12.93 c -18.34,-4.77 -36.63,-7.9 -39.1,-8.16 z"
     class="cls-8" />
  <path
     id="path30"
     d="m 460.89,203.08 v 148 a 39.11,39.11 0 0 0 78.22,0 V 202.51 c -3.77,-0.36 -20.42,-1.73 -39.11,-1.72 -17,0 -34.55,1.82 -39.11,2.29 z"
     class="cls-8" />
  <path
     id="path32"
     d="m 362.93,226.56 -0.11,84 a 39.11,39.11 0 0 0 78.22,0 V 205.44 A 396,396 0 0 0 400.3,214 341.66,341.66 0 0 0 362.93,226.56 Z"
     class="cls-8" />
  <path
     id="path34"
     d="m 830.52,76.65 c 0,0 99.92,151.49 54.84,354.67 0,0 48.38,122.54 41.88,187.09 l 38.76,45.07 -35.56,32.32 19.36,46.71 c 0,0 -112,124.63 -414.39,180.62 C 524,925.36 512,927.41 500,929.34 h -0.07 c -12.08,-1.93 -24,-4 -35.52,-6.21 C 162.09,867.13 50.06,742.51 50.06,742.51 L 69.42,695.8 34,663.48 72.68,618.41 C 66.22,553.86 114.6,431.32 114.6,431.32 69.42,228.14 169.45,76.65 169.45,76.65 c 83.79,35.41 193.48,154.76 193.48,154.76 0.18,-0.08 0.48,-0.19 0.67,-0.26 a 21.18,21.18 0 0 0 2,-0.78 c 0.48,-0.19 1,-0.41 1.45,-0.6 1.78,-0.74 4.08,-1.63 6.94,-2.63 3.16,-1.16 7,-2.46 11.41,-3.83 4,-1.26 7.95,-2.53 11.89,-3.61 3.12,-0.85 6.13,-1.7 9.22,-2.41 7.69,-1.9 16.27,-3.79 25.64,-5.46 4.57,-0.86 9.1,-1.6 13.63,-2.27 5.24,-0.82 10.44,-1.45 15.57,-2 8.62,-0.89 17.06,-1.45 25.27,-1.67 2.49,-0.11 4.9,-0.18 7.36,-0.18 2,-0.06 4.05,-0.09 6.06,-0.09 2.01,0 4,0 6,0.09 2.53,0.07 4.94,0.07 7.36,0.18 6.43,0.19 13,0.56 19.73,1.19 6.73,0.63 13.93,1.41 21.07,2.45 4.53,0.71 9.14,1.45 13.75,2.31 4.61,0.86 8.8,1.71 13,2.56 0,0 0,0 0,0 4.39,0.93 8.62,1.89 12.56,2.86 3.2,0.78 6.28,1.67 9.18,2.41 4.35,1.27 8.32,2.42 11.89,3.61 4.42,1.37 8.25,2.64 11.41,3.83 2.86,1 5.2,1.89 7,2.63 0.49,0.19 1,0.41 1.45,0.6 a 19.49,19.49 0 0 0 1.93,0.78 c 0.49,0.18 0.67,0.26 0.67,0.26 0,0 109.58,-119.32 193.48,-154.73 M 160.24,46.2 l -11.2,17 c -1.1,1.67 -27.19,41.58 -47.35,107.46 C 83.58,229.84 67,322.28 89.17,429.35 79.29,455.64 46.33,548.28 47.71,610 l -32.26,37.55 -15.45,18 17.52,16 22.73,20.75 -12.78,30.84 -5.91,14.25 10.31,11.47 c 4.8,5.34 121.1,131.44 428,188.3 10.72,2.08 22.57,4.15 36.23,6.33 l 1.91,0.31 h 3.9 l 2,-0.31 c 13.8,-2.22 25.61,-4.29 36.1,-6.33 306.92,-56.86 423.2,-183 428,-188.3 l 10.31,-11.47 -5.91,-14.25 -12.78,-30.82 22.81,-20.75 17.58,-16 -15.49,-18 L 952.23,610 C 953.63,548.31 920.67,455.67 910.8,429.38 932.93,322.32 916.33,229.88 898.23,170.68 878.09,104.75 852,64.85 850.94,63.18 l -11.2,-17 -18.74,7.93 c -72.37,30.55 -159.57,116.56 -190.55,148.65 -2.42,-0.84 -5.17,-1.73 -8.39,-2.73 -3.88,-1.29 -8,-2.48 -12.3,-3.74 l -0.26,-0.07 -0.38,-0.11 -0.38,-0.1 c -1.1,-0.28 -2.23,-0.59 -3.38,-0.9 v 0 -0.66 l -19.53,-4 -1.08,-0.22 c -4,-0.81 -8,-1.65 -12.47,-2.45 -5,-0.93 -10.06,-1.74 -14.33,-2.41 h -0.12 -0.11 c -7.5,-1.09 -15,-2 -22.4,-2.61 -6.85,-0.64 -13.72,-1.06 -21,-1.27 -1.61,-0.07 -3.22,-0.1 -4.86,-0.13 l -2.68,-0.06 c -2.26,-0.07 -4.49,-0.1 -6.74,-0.1 -2.25,0 -4.27,0 -6.41,0.09 -2.38,0 -4.9,0.07 -7.88,0.2 -8.73,0.24 -17.79,0.84 -26.91,1.78 -6.55,0.72 -11.83,1.4 -16.72,2.16 -5.07,0.75 -9.78,1.53 -14.38,2.39 -8.92,1.59 -17.72,3.47 -26.89,5.72 -3.06,0.71 -5.9,1.49 -8.64,2.24 l -1.38,0.38 c -4.43,1.22 -8.7,2.57 -12.84,3.89 -2.9,0.9 -5.75,1.83 -8.47,2.77 C 338.51,170.71 251.27,84.67 179,54.12 Z"
     class="cls-6" />
  <g
     id="g1655"
     transform="matrix(0.53807522,-0.07449982,0.09284699,0.67058773,396.63859,822.00877)"
     style="display:inline;stroke:#ffffff;stroke-width:9.89417;stroke-miterlimit:4;stroke-dasharray:none;stroke-opacity:1">
    <path
       d="m 421.90407,452.75407 h -13.8946 l -52.73066,-82.13699 -53.53526,82.13699 h -13.77977 l 60.0001,-93.05396 -54.65498,-85.48105 h 14.16526 l 48.02981,75.18691 49.04634,-75.18691 h 13.29081 l -55.24314,85.23737 z"
       fill="#209ce9"
       id="path1651"
       style="fill:#ffffff;fill-opacity:1;stroke:#ffffff;stroke-width:9.89417;stroke-miterlimit:4;stroke-dasharray:none;stroke-opacity:1" />
    <path
       d="m 301.14189,354.25948 h 108.03466 v 10.15445 H 301.14189 Z m 0,30.46281 h 108.03916 v 10.15444 H 301.13739 Z"
       fill="#209CE9"
       id="path1653"
       style="fill:#ffffff;fill-opacity:1;stroke:#ffffff;stroke-width:9.89417;stroke-miterlimit:4;stroke-dasharray:none;stroke-opacity:1" />
  </g>
</svg>
